<?xml version="1.0" standalone="no"?>
<!DOCTYPE svg PUBLIC "-//W3C//DTD SVG 20010904//EN"
 "http://www.w3.org/TR/2001/REC-SVG-20010904/DTD/svg10.dtd">
<svg version="1.0" xmlns="http://www.w3.org/2000/svg"
 width="800.000000pt" height="800.000000pt" viewBox="0 0 800.000000 800.000000"
 preserveAspectRatio="xMidYMid meet">
<metadata>
Created by potrace 1.14, written by Peter Selinger 2001-2017
</metadata>
<g transform="translate(0.000000,800.000000) scale(0.100000,-0.100000)"
fill="#000000" stroke="none">
<path d="M4633 5564 c-633 -76 -1019 -398 -1169 -973 -70 -271 -89 -633 -59
-1120 28 -448 14 -696 -56 -966 -78 -304 -220 -576 -449 -860 -362 -449 -665
-921 -850 -1325 -69 -152 -130 -296 -130 -310 0 -16 480 -13 484 2 68 238 148
437 262 656 83 159 228 409 252 432 38 39 -6 -71 -123 -305 -165 -332 -210
-443 -260 -650 -40 -160 -54 -145 144 -145 l169 0 16 42 c69 191 114 298 259
613 305 666 431 993 517 1345 33 134 70 351 70 413 0 20 5 37 10 37 21 0 186
-120 290 -209 58 -50 134 -106 170 -125 115 -61 249 -84 382 -66 135 19 224
54 402 160 89 54 194 109 232 124 172 66 281 133 368 225 26 29 50 51 51 49 2
-2 19 -60 39 -128 99 -353 296 -882 479 -1292 37 -80 133 -281 215 -445 137
-273 253 -541 298 -685 l18 -58 199 0 199 0 -7 68 c-20 205 -75 384 -186 607
-88 178 -173 304 -297 439 -46 50 -90 103 -98 119 -13 24 -13 28 1 34 31 11
216 -191 346 -377 178 -253 320 -588 364 -852 l6 -38 395 0 394 0 -6 27 c-13
56 -83 251 -129 363 -152 369 -418 789 -770 1220 -447 545 -599 802 -677 1145
-18 81 -21 139 -28 605 -9 586 -20 739 -71 1000 -75 380 -198 646 -395 850
-199 206 -439 318 -774 359 -113 15 -359 12 -497 -5z m569 -1345 c170 -36 305
-175 378 -389 32 -93 39 -288 15 -396 -30 -134 -111 -292 -144 -278 -9 3 -60
23 -114 44 -53 20 -100 40 -104 44 -4 3 7 21 25 39 44 45 63 106 69 217 5 84
2 104 -20 167 -58 168 -174 230 -279 150 -87 -67 -130 -165 -132 -304 0 -51
-2 -93 -3 -93 -1 0 -48 16 -106 35 -57 19 -111 35 -120 35 -38 0 -30 229 12
352 67 196 201 336 356 374 65 16 102 17 167 3z m-1167 -114 c52 -25 133 -108
167 -171 54 -99 80 -200 86 -325 l5 -117 -39 -12 c-22 -7 -65 -26 -96 -42
l-58 -28 -1 57 c0 76 -28 177 -62 231 -105 163 -257 61 -257 -172 0 -118 27
-201 87 -267 l24 -26 -48 -38 c-26 -21 -54 -43 -62 -49 -31 -24 -131 139 -167
274 -13 48 -18 102 -18 205 0 125 3 149 27 220 43 129 111 220 200 265 52 26
151 24 212 -5z m604 -685 c95 -24 159 -52 310 -135 64 -35 134 -71 156 -79 22
-8 96 -36 165 -61 164 -61 232 -98 285 -157 75 -83 82 -169 23 -281 -69 -128
-194 -222 -413 -306 -45 -17 -137 -65 -205 -107 -236 -145 -347 -181 -520
-171 -173 11 -229 38 -419 204 -39 35 -117 94 -173 132 -123 82 -193 149 -233
222 -25 45 -30 65 -30 125 0 62 3 75 29 108 16 21 89 83 162 137 73 54 166
129 206 165 125 114 251 188 373 217 54 13 211 6 284 -13z"/>
<path d="M4263 3280 c-78 -18 -106 -65 -52 -84 21 -7 33 -5 57 12 16 12 36 22
44 22 22 0 48 24 40 37 -10 16 -52 23 -89 13z"/>
<path d="M4608 3283 c-29 -8 -30 -33 0 -45 15 -6 44 -19 65 -30 71 -37 121 14
52 53 -33 18 -90 29 -117 22z"/>
<path d="M5308 2891 c-47 -55 -241 -198 -350 -258 -121 -66 -266 -128 -365
-154 -93 -25 -241 -29 -323 -10 -76 18 -202 79 -282 135 -68 47 -205 177 -244
231 -23 31 -54 30 -54 -2 0 -71 227 -269 405 -353 122 -58 192 -74 325 -73
175 1 299 41 577 187 237 124 469 336 369 336 -16 0 -36 -14 -58 -39z"/>
</g>
</svg>
