<?xml version="1.0" encoding="UTF-8" standalone="no"?>
<!-- Created with Inkscape (http://www.inkscape.org/) -->

<svg
   width="399.99997"
   height="399.99997"
   viewBox="0 0 105.83333 105.83333"
   version="1.1"
   id="svg1"
   xmlns="http://www.w3.org/2000/svg"
   xmlns:svg="http://www.w3.org/2000/svg"
   xmlns:serif="http://www.serif.com/">
  <defs
     id="defs1">
    <clipPath
       id="_clip7">
      <circle
         cx="1288"
         cy="584"
         r="200"
         id="circle9" />
    </clipPath>
  </defs>
  <g
     id="layer1"
     transform="translate(-43.842728,-72.117226)">
    <circle
       cx="96.759392"
       cy="125.03389"
       r="52.916664"
       style="clip-rule:evenodd;fill:#ffd300;fill-rule:evenodd;stroke:none;stroke-width:0.396875px;stroke-linejoin:round;stroke-miterlimit:1.41421"
       id="circle8" />
    <g
       clip-path="url(#_clip7)"
       id="g9"
       transform="matrix(0.26458333,0,0,0.26458333,-244.02394,-29.482777)"
       style="clip-rule:evenodd;fill-rule:evenodd;stroke-linejoin:round;stroke-miterlimit:1.41421">
      <path
         id="path34"
         serif:id="path3"
         d="m 1525.25,866.335 c -0.01,-0.006 -0.012,-0.012 -0.012,-0.018 -3.607,-4.071 -5.326,-11.62 -7.174,-19.662 -1.843,-8.036 -3.905,-16.702 -10.502,-22.319 -0.013,-0.012 -0.031,-0.024 -0.042,-0.036 -1.308,-1.141 -2.651,-2.104 -4,-2.907 -1.355,-0.802 -2.728,-1.456 -4.101,-1.973 9.172,-27.199 5.576,-54.284 -3.685,-78.755 -11.358,-30.04 -31.193,-56.21 -46.344,-74.113 -16.957,-21.392 -33.541,-41.696 -33.214,-71.688 0.505,-45.773 5.034,-130.657 -75.516,-130.77 -3.275,-0.006 -6.693,0.131 -10.253,0.416 -90.013,7.246 -66.137,102.347 -67.474,134.188 -1.647,23.287 -6.366,41.642 -22.385,64.407 -18.812,22.372 -45.309,58.588 -57.857,96.289 -5.92,17.79 -8.737,35.924 -6.139,53.09 -0.815,0.731 -1.587,1.498 -2.33,2.283 -5.522,5.902 -9.606,13.046 -14.153,17.854 -4.249,4.245 -10.3,5.855 -16.957,8.238 -6.657,2.39 -13.962,5.908 -18.396,14.42 0,0 0,0.006 -0.01,0.006 -0.01,0.012 -0.012,0.03 -0.024,0.041 -2.086,3.894 -2.764,8.096 -2.764,12.358 0,3.94 0.583,7.935 1.171,11.78 1.224,8.001 2.467,15.566 0.82,20.691 -5.266,14.401 -5.944,24.357 -2.235,31.586 3.721,7.239 11.359,10.431 19.995,12.238 17.273,3.602 40.662,2.71 59.094,12.482 l 1.587,-2.99 -1.57,2.996 c 19.734,10.318 39.741,13.98 55.7,10.336 11.578,-2.638 20.969,-9.533 25.796,-20.138 12.482,-0.059 26.182,-5.349 48.127,-6.555 14.889,-1.201 33.487,5.289 54.879,4.101 0.559,2.318 1.368,4.553 2.472,6.675 0.013,0.017 0.024,0.041 0.037,0.059 8.291,16.583 23.697,24.167 40.12,22.872 16.44,-1.297 33.921,-10.99 48.056,-27.805 l -2.592,-2.176 2.61,2.152 c 13.469,-16.334 35.824,-23.104 50.653,-32.043 7.412,-4.47 13.422,-10.068 13.891,-18.2 0.463,-8.125 -4.31,-17.231 -15.283,-29.41 z"
         style="fill:#1b1f20;fill-rule:nonzero" />
      <path
         id="path54"
         serif:id="path5"
         d="m 1533.76,895.359 c -0.285,5.016 -3.917,8.743 -10.628,12.785 -13.409,8.089 -37.179,15.127 -52.353,33.511 -13.184,15.685 -29.256,24.298 -43.407,25.415 -14.152,1.118 -26.361,-4.755 -33.565,-19.204 l -0.012,-0.03 -0.018,-0.036 c -4.47,-8.5 -2.609,-21.903 1.153,-36.048 3.762,-14.141 9.171,-28.667 9.896,-40.466 v -0.036 c 0.761,-15.121 1.611,-28.328 4.149,-38.522 2.544,-10.193 6.544,-17.088 13.629,-20.97 0.333,-0.178 0.659,-0.35 0.986,-0.511 0.803,13.094 7.288,26.457 18.747,29.345 12.542,3.305 30.617,-7.454 38.249,-16.233 1.527,-0.06 3.013,-0.136 4.458,-0.172 6.699,-0.161 12.31,0.226 18.051,5.242 l 0.017,0.018 0.018,0.012 c 4.411,3.739 6.509,10.8 8.328,18.705 1.819,7.912 3.269,16.524 8.726,22.664 l 0.01,0.006 0.01,0.012 c 10.485,11.632 13.855,19.49 13.564,24.513 z"
         style="fill:#ffd300;fill-rule:nonzero" />
      <path
         id="path74"
         serif:id="path7"
         d="m 1278.92,932.436 -0.01,0.036 v 0.041 c -1.213,15.894 -10.176,24.548 -23.942,27.692 -13.754,3.145 -32.412,0.013 -51.039,-9.73 -0.01,0 -0.012,-0.006 -0.018,-0.006 -20.613,-10.918 -45.132,-9.831 -60.865,-13.118 -7.863,-1.64 -12.999,-4.113 -15.353,-8.701 -2.353,-4.595 -2.407,-12.601 2.598,-26.254 l 0.024,-0.06 0.017,-0.059 c 2.479,-7.638 0.642,-15.995 -0.558,-23.841 -1.201,-7.839 -1.789,-14.978 0.891,-19.947 l 0.024,-0.048 c 3.43,-6.609 8.458,-8.975 14.699,-11.21 6.247,-2.241 13.647,-4 19.49,-9.861 l 0.035,-0.029 0.03,-0.03 c 5.403,-5.7 9.463,-12.851 14.212,-17.921 4.006,-4.279 8.018,-7.114 14.063,-7.156 0.071,0.006 0.137,0.006 0.208,0 1.058,0.006 2.181,0.095 3.37,0.28 8.024,1.212 15.02,6.823 21.76,15.964 l 19.46,35.467 0.01,0.018 0.012,0.012 c 5.177,10.811 16.114,22.705 25.38,34.836 9.266,12.126 16.435,24.305 15.502,33.625 z"
         style="fill:#ffd300;fill-rule:nonzero" />
      <path
         id="path94"
         serif:id="path9"
         d="m 1375.97,601.806 c -1.563,-3.061 -4.755,-5.973 -10.188,-8.202 l -0.012,-0.006 -0.018,-0.006 c -11.299,-4.838 -16.202,-5.183 -22.509,-9.284 -10.265,-6.598 -18.746,-8.91 -25.796,-8.88 -3.691,0.012 -6.99,0.665 -9.944,1.688 -8.589,2.954 -14.289,9.117 -17.861,12.5 l -0.01,0.005 c 0,0.006 -0.01,0.006 -0.01,0.012 -0.701,0.666 -1.605,1.272 -3.792,2.877 -2.205,1.611 -5.51,4.036 -10.265,7.602 -4.226,3.168 -5.599,7.293 -4.137,12.126 1.457,4.832 6.116,10.407 14.64,15.228 l 0.012,0.012 0.018,0.005 c 5.29,3.109 8.903,7.299 13.052,10.634 2.075,1.664 4.256,3.15 6.883,4.274 2.627,1.123 5.694,1.884 9.534,2.11 9.011,0.523 15.644,-2.182 21.499,-5.534 5.866,-3.346 10.835,-7.442 16.535,-9.29 l 0.012,-0.006 0.013,-0.006 c 11.685,-3.65 20.018,-11.002 22.627,-17.986 1.308,-3.495 1.266,-6.812 -0.291,-9.873 z"
         style="fill:#ffd300;fill-rule:nonzero" />
      <path
         id="path114"
         serif:id="path11"
         d="m 1346.33,619.055 c -9.296,4.846 -20.155,10.723 -31.71,10.723 -11.549,0 -20.673,-5.338 -27.234,-10.539 -3.281,-2.597 -5.944,-5.183 -7.953,-7.061 -3.486,-2.751 -3.068,-6.61 -1.636,-6.496 2.4,0.299 2.763,3.46 4.275,4.874 2.044,1.913 4.606,4.392 7.709,6.853 6.205,4.915 14.479,9.7 24.839,9.7 10.342,0 22.415,-6.072 29.784,-10.206 4.175,-2.342 9.488,-6.54 13.824,-9.722 3.317,-2.435 3.196,-5.367 5.935,-5.048 2.738,0.32 0.712,3.246 -3.123,6.593 -3.836,3.347 -9.836,7.789 -14.71,10.329 z"
         style="fill:#1b1f20;fill-rule:nonzero" />
      <path
         id="path134"
         serif:id="path13"
         d="m 1488.68,817.435 c -1.29,-0.047 -2.562,-0.041 -3.798,-0.012 -0.113,0.006 -0.226,0.006 -0.345,0.006 3.192,-10.08 -3.869,-17.516 -22.687,-26.027 -19.514,-8.583 -35.063,-7.733 -37.69,9.682 -0.166,0.909 -0.303,1.843 -0.404,2.782 -1.462,0.511 -2.924,1.153 -4.398,1.955 -9.16,5.017 -14.164,14.111 -16.946,25.274 -2.776,11.15 -3.578,24.625 -4.339,39.776 0,0.006 0,0.006 0,0.012 -0.47,7.614 -3.608,17.92 -6.782,28.834 -31.966,22.805 -76.33,32.684 -114.002,6.971 -2.55,-4.036 -5.48,-8.036 -8.494,-11.983 -1.926,-2.519 -3.905,-5.022 -5.866,-7.494 3.863,0.006 7.15,-0.631 9.807,-1.831 3.305,-1.504 5.623,-3.905 6.776,-6.996 2.294,-6.176 -0.012,-14.89 -7.364,-24.845 -7.353,-9.95 -19.805,-21.178 -38.1,-32.4 v -0.006 c -13.445,-8.363 -20.958,-18.611 -24.477,-29.737 -3.524,-11.133 -3.031,-23.169 -0.315,-35.05 5.207,-22.807 18.581,-44.989 27.116,-58.909 2.294,-1.688 0.82,3.138 -8.642,20.708 -8.476,16.061 -24.328,53.125 -2.628,82.06 0.583,-20.589 5.498,-41.589 13.754,-61.233 12.025,-27.252 37.173,-74.523 39.17,-112.195 1.034,0.749 4.571,3.138 6.146,4.036 0.01,0.006 0.01,0.006 0.012,0.006 4.612,2.716 8.077,6.686 12.565,10.294 4.499,3.614 10.116,6.735 18.604,7.228 0.814,0.047 1.611,0.071 2.389,0.071 8.75,0 15.573,-2.853 21.255,-6.104 6.177,-3.531 11.109,-7.442 15.788,-8.963 0.01,-0.006 0.012,-0.006 0.018,-0.006 9.884,-3.091 17.736,-8.559 22.205,-14.931 7.679,30.266 25.535,73.982 37.013,95.315 6.104,11.317 18.241,35.365 23.484,64.341 3.322,-0.101 6.984,0.381 10.901,1.385 13.712,-35.55 -11.626,-73.834 -23.217,-84.497 -4.678,-4.542 -4.904,-6.574 -2.58,-6.479 12.566,11.121 29.071,33.475 35.075,58.713 2.739,11.506 3.322,23.608 0.386,35.549 1.432,0.595 2.894,1.243 4.374,1.945 22.01,10.716 30.147,20.036 26.236,32.755 z"
         style="fill:#ffd300;fill-rule:nonzero" />
      <path
         id="path154"
         serif:id="path15"
         d="m 1377.01,566.94 c 0.048,5.997 -0.987,11.103 -3.263,16.316 -1.296,2.972 -2.787,5.468 -4.576,7.631 -0.607,-0.291 -1.237,-0.57 -1.891,-0.838 -2.265,-0.968 -4.268,-1.765 -6.062,-2.442 -1.796,-0.678 -3.197,-1.141 -4.641,-1.64 1.046,-1.266 3.108,-2.758 3.875,-4.631 1.165,-2.823 1.736,-5.581 1.843,-8.868 0,-0.13 0.042,-0.243 0.042,-0.398 0.065,-3.15 -0.351,-5.843 -1.272,-8.601 -0.963,-2.894 -2.188,-4.975 -3.959,-6.704 -1.777,-1.73 -3.548,-2.514 -5.676,-2.586 -0.101,-0.006 -0.196,-0.006 -0.297,-0.006 -1.997,0.006 -3.733,0.696 -5.529,2.194 -1.884,1.575 -3.281,3.59 -4.445,6.395 -1.159,2.806 -1.73,5.587 -1.843,8.892 -0.017,0.131 -0.017,0.244 -0.017,0.374 -0.042,1.819 0.077,3.484 0.356,5.1 -4.089,-2.039 -9.321,-3.525 -12.935,-4.387 -0.208,-1.563 -0.327,-3.174 -0.362,-4.862 v -0.458 c -0.066,-5.979 0.915,-11.109 3.215,-16.315 2.3,-5.213 5.148,-8.958 9.153,-12.007 4.012,-3.043 7.953,-4.44 12.619,-4.487 h 0.22 c 4.565,0 8.47,1.343 12.482,4.249 4.071,2.96 7.007,6.657 9.373,11.829 2.318,5.04 3.436,9.967 3.549,15.81 -10e-4,0.155 -10e-4,0.285 0.041,0.44 z"
         style="fill:#ffd300;fill-rule:nonzero" />
      <path
         id="path174"
         serif:id="path17"
         d="m 1308.01,572.913 c -0.6,0.173 -1.182,0.357 -1.759,0.553 -3.269,1.13 -5.865,2.376 -8.373,4.034 0.244,-1.735 0.28,-3.495 0.089,-5.462 -0.018,-0.107 -0.018,-0.196 -0.018,-0.303 -0.261,-2.61 -0.814,-4.797 -1.735,-7.008 -0.981,-2.3 -2.08,-3.923 -3.525,-5.171 -1.307,-1.129 -2.544,-1.653 -3.911,-1.641 -0.137,0 -0.279,0.006 -0.422,0.018 -1.533,0.131 -2.805,0.88 -4.012,2.348 -1.201,1.462 -1.991,3.281 -2.562,5.694 -0.57,2.407 -0.719,4.773 -0.481,7.489 0,0.107 0.024,0.196 0.024,0.303 0.261,2.634 0.79,4.821 1.729,7.032 0.963,2.276 2.081,3.899 3.525,5.147 0.244,0.208 0.481,0.399 0.719,0.565 -1.498,1.159 -2.504,1.981 -3.74,2.885 -0.791,0.576 -1.73,1.266 -2.824,2.074 -2.383,-2.235 -4.243,-5.04 -5.872,-8.743 -1.926,-4.375 -2.954,-8.756 -3.263,-13.927 v -0.041 c -0.286,-5.171 0.22,-9.617 1.64,-14.218 1.427,-4.6 3.329,-7.929 6.093,-10.663 2.758,-2.74 5.539,-4.119 8.892,-4.291 0.261,-0.012 0.517,-0.018 0.772,-0.018 3.038,0.006 5.748,1.016 8.553,3.257 3.044,2.431 5.344,5.54 7.27,9.92 1.931,4.381 2.96,8.761 3.245,13.932 v 0.042 c 0.137,2.169 0.119,4.214 -0.054,6.193 z"
         style="fill:#ffd300;fill-rule:nonzero" />
      <path
         id="path28396-74"
         serif:id="path28396-7"
         d="m 1323.26,585.282 c 0.385,1.234 2.374,1.03 3.523,1.622 1.008,0.519 1.819,1.657 2.953,1.69 1.082,0.031 2.766,-0.375 2.907,-1.448 0.185,-1.418 -1.885,-2.319 -3.218,-2.838 -1.714,-0.669 -3.911,-1.008 -5.519,-0.114 -0.369,0.205 -0.771,0.686 -0.646,1.088 z"
         style="fill:#1b1f20;fill-rule:nonzero" />
      <path
         id="path54614"
         serif:id="path5461"
         d="m 1311.51,585.282 c -0.385,1.234 -2.374,1.03 -3.523,1.622 -1.008,0.519 -1.819,1.657 -2.953,1.69 -1.082,0.031 -2.766,-0.375 -2.907,-1.448 -0.186,-1.418 1.885,-2.319 3.218,-2.838 1.714,-0.669 3.911,-1.008 5.519,-0.114 0.369,0.205 0.771,0.686 0.646,1.088 z"
         style="fill:#1b1f20;fill-rule:nonzero" />
    </g>
  </g>
</svg>
